<mxfile host="Electron" agent="Mozilla/5.0 (Windows NT 10.0; Win64; x64) AppleWebKit/537.36 (KHTML, like Gecko) draw.io/26.0.4 Chrome/128.0.6613.186 Electron/32.2.5 Safari/537.36" version="26.0.4">
  <diagram name="Page-1" id="a6RekXZ-yNWR2Jmaxnki">
    <mxGraphModel dx="2938" dy="1188" grid="1" gridSize="10" guides="1" tooltips="1" connect="1" arrows="1" fold="1" page="1" pageScale="1" pageWidth="1654" pageHeight="1169" math="0" shadow="0">
      <root>
        <mxCell id="0" />
        <mxCell id="1" parent="0" />
        <mxCell id="VOK0NjO4ZqthzF3g6MxM-36" value="" style="rounded=1;whiteSpace=wrap;html=1;fillColor=#d5e8d4;strokeColor=#82b366;fillStyle=auto;" vertex="1" parent="1">
          <mxGeometry x="320" y="120" width="760" height="760" as="geometry" />
        </mxCell>
        <mxCell id="VOK0NjO4ZqthzF3g6MxM-37" value="" style="rounded=1;whiteSpace=wrap;html=1;fillColor=#dae8fc;strokeColor=#6c8ebf;" vertex="1" parent="1">
          <mxGeometry x="580" y="500" width="240" height="200" as="geometry" />
        </mxCell>
        <mxCell id="VOK0NjO4ZqthzF3g6MxM-1" value="&lt;p style=&quot;margin:0px;margin-top:4px;text-align:center;&quot;&gt;&lt;span style=&quot;background-color: transparent; text-align: left;&quot;&gt;&lt;b&gt;ActionHandler&lt;/b&gt;&lt;/span&gt;&lt;/p&gt;&lt;hr size=&quot;1&quot;&gt;&lt;p style=&quot;margin:0px;margin-left:4px;&quot;&gt;&lt;br&gt;&lt;/p&gt;&lt;hr size=&quot;1&quot;&gt;&lt;p style=&quot;margin:0px;margin-left:4px;&quot;&gt;&lt;br&gt;&lt;/p&gt;" style="verticalAlign=top;align=left;overflow=fill;fontSize=12;fontFamily=Helvetica;html=1;fillColor=#ffe6cc;strokeColor=#000000;" vertex="1" parent="1">
          <mxGeometry x="620" y="20" width="160" height="80" as="geometry" />
        </mxCell>
        <mxCell id="VOK0NjO4ZqthzF3g6MxM-5" style="edgeStyle=orthogonalEdgeStyle;rounded=1;orthogonalLoop=1;jettySize=auto;html=1;endArrow=block;endFill=0;curved=0;" edge="1" parent="1" source="VOK0NjO4ZqthzF3g6MxM-2" target="VOK0NjO4ZqthzF3g6MxM-1">
          <mxGeometry relative="1" as="geometry">
            <Array as="points">
              <mxPoint x="560" y="160" />
              <mxPoint x="700" y="160" />
            </Array>
          </mxGeometry>
        </mxCell>
        <mxCell id="VOK0NjO4ZqthzF3g6MxM-2" value="&lt;p style=&quot;margin:0px;margin-top:4px;text-align:center;&quot;&gt;&lt;b&gt;ServiceHandlerA&lt;/b&gt;&lt;/p&gt;&lt;hr size=&quot;1&quot;&gt;&lt;p style=&quot;margin:0px;margin-left:4px;&quot;&gt;- notifier: ServiceNotifierA&lt;/p&gt;&lt;hr size=&quot;1&quot;&gt;&lt;p style=&quot;margin:0px;margin-left:4px;&quot;&gt;+ ServiceHandlerA(owner: ServiceNotifierA)&lt;/p&gt;" style="verticalAlign=top;align=left;overflow=fill;fontSize=12;fontFamily=Helvetica;html=1;fillColor=#ffe6cc;strokeColor=#000000;" vertex="1" parent="1">
          <mxGeometry x="440" y="200" width="240" height="80" as="geometry" />
        </mxCell>
        <mxCell id="VOK0NjO4ZqthzF3g6MxM-4" style="edgeStyle=orthogonalEdgeStyle;rounded=0;orthogonalLoop=1;jettySize=auto;html=1;endArrow=none;endFill=0;startArrow=diamondThin;startFill=1;" edge="1" parent="1" source="VOK0NjO4ZqthzF3g6MxM-3" target="VOK0NjO4ZqthzF3g6MxM-2">
          <mxGeometry relative="1" as="geometry" />
        </mxCell>
        <mxCell id="VOK0NjO4ZqthzF3g6MxM-3" value="&lt;p style=&quot;margin:0px;margin-top:4px;text-align:center;&quot;&gt;&lt;b&gt;ServiceNotifierA&lt;/b&gt;&lt;/p&gt;&lt;hr size=&quot;1&quot;&gt;&lt;p style=&quot;margin:0px;margin-left:4px;&quot;&gt;- handler: ServiceHandlerA&lt;/p&gt;&lt;hr size=&quot;1&quot;&gt;&lt;p style=&quot;margin:0px;margin-left:4px;&quot;&gt;&lt;i&gt;+ callback1(JSON): String&lt;/i&gt;&lt;/p&gt;&lt;p style=&quot;margin:0px;margin-left:4px;&quot;&gt;&lt;i&gt;+ callback2(JSON): String&lt;/i&gt;&lt;/p&gt;" style="verticalAlign=top;align=left;overflow=fill;fontSize=12;fontFamily=Helvetica;html=1;fillColor=#ffe6cc;strokeColor=#000000;" vertex="1" parent="1">
          <mxGeometry x="480" y="360" width="160" height="90" as="geometry" />
        </mxCell>
        <mxCell id="VOK0NjO4ZqthzF3g6MxM-10" style="edgeStyle=orthogonalEdgeStyle;rounded=1;orthogonalLoop=1;jettySize=auto;html=1;endArrow=block;endFill=0;curved=0;" edge="1" parent="1" source="VOK0NjO4ZqthzF3g6MxM-6" target="VOK0NjO4ZqthzF3g6MxM-1">
          <mxGeometry relative="1" as="geometry">
            <Array as="points">
              <mxPoint x="840" y="160" />
              <mxPoint x="700" y="160" />
            </Array>
          </mxGeometry>
        </mxCell>
        <mxCell id="VOK0NjO4ZqthzF3g6MxM-6" value="&lt;p style=&quot;margin:0px;margin-top:4px;text-align:center;&quot;&gt;&lt;b&gt;ServiceHandlerB&lt;/b&gt;&lt;/p&gt;&lt;hr size=&quot;1&quot;&gt;&lt;p style=&quot;margin:0px;margin-left:4px;&quot;&gt;- notifier: ServiceNotifierB&lt;/p&gt;&lt;hr size=&quot;1&quot;&gt;&lt;p style=&quot;margin:0px;margin-left:4px;&quot;&gt;+ ServiceHandlerB(owner: ServiceNotifierB&lt;span style=&quot;background-color: transparent; color: light-dark(rgb(0, 0, 0), rgb(255, 255, 255));&quot;&gt;)&lt;/span&gt;&lt;/p&gt;" style="verticalAlign=top;align=left;overflow=fill;fontSize=12;fontFamily=Helvetica;html=1;fillColor=#ffe6cc;strokeColor=#000000;" vertex="1" parent="1">
          <mxGeometry x="720" y="200" width="240" height="80" as="geometry" />
        </mxCell>
        <mxCell id="VOK0NjO4ZqthzF3g6MxM-9" style="edgeStyle=orthogonalEdgeStyle;rounded=0;orthogonalLoop=1;jettySize=auto;html=1;endArrow=none;endFill=0;startArrow=diamondThin;startFill=1;" edge="1" parent="1" source="VOK0NjO4ZqthzF3g6MxM-7" target="VOK0NjO4ZqthzF3g6MxM-6">
          <mxGeometry relative="1" as="geometry" />
        </mxCell>
        <mxCell id="VOK0NjO4ZqthzF3g6MxM-7" value="&lt;p style=&quot;margin:0px;margin-top:4px;text-align:center;&quot;&gt;&lt;b&gt;ServiceNotifierB&lt;/b&gt;&lt;/p&gt;&lt;hr size=&quot;1&quot;&gt;&lt;p style=&quot;margin:0px;margin-left:4px;&quot;&gt;- handler: ServiceHandlerB&lt;/p&gt;&lt;hr size=&quot;1&quot;&gt;&lt;p style=&quot;margin:0px;margin-left:4px;&quot;&gt;&lt;i&gt;+ callback3(JSON): String&lt;/i&gt;&lt;/p&gt;&lt;p style=&quot;margin:0px;margin-left:4px;&quot;&gt;&lt;i&gt;+ callback4(JSON): String&lt;/i&gt;&lt;/p&gt;" style="verticalAlign=top;align=left;overflow=fill;fontSize=12;fontFamily=Helvetica;html=1;fillColor=#ffe6cc;strokeColor=#000000;" vertex="1" parent="1">
          <mxGeometry x="760" y="360" width="160" height="90" as="geometry" />
        </mxCell>
        <mxCell id="VOK0NjO4ZqthzF3g6MxM-12" style="edgeStyle=orthogonalEdgeStyle;rounded=1;orthogonalLoop=1;jettySize=auto;html=1;endArrow=block;endFill=0;curved=0;" edge="1" parent="1" source="VOK0NjO4ZqthzF3g6MxM-11" target="VOK0NjO4ZqthzF3g6MxM-3">
          <mxGeometry relative="1" as="geometry">
            <Array as="points">
              <mxPoint x="700" y="480" />
              <mxPoint x="560" y="480" />
            </Array>
          </mxGeometry>
        </mxCell>
        <mxCell id="VOK0NjO4ZqthzF3g6MxM-13" style="edgeStyle=orthogonalEdgeStyle;rounded=1;orthogonalLoop=1;jettySize=auto;html=1;curved=0;endArrow=block;endFill=0;" edge="1" parent="1" source="VOK0NjO4ZqthzF3g6MxM-11" target="VOK0NjO4ZqthzF3g6MxM-7">
          <mxGeometry relative="1" as="geometry">
            <Array as="points">
              <mxPoint x="700" y="480" />
              <mxPoint x="840" y="480" />
            </Array>
          </mxGeometry>
        </mxCell>
        <mxCell id="VOK0NjO4ZqthzF3g6MxM-27" style="edgeStyle=orthogonalEdgeStyle;rounded=0;orthogonalLoop=1;jettySize=auto;html=1;endArrow=open;endFill=0;" edge="1" parent="1" source="VOK0NjO4ZqthzF3g6MxM-11" target="VOK0NjO4ZqthzF3g6MxM-24">
          <mxGeometry relative="1" as="geometry" />
        </mxCell>
        <mxCell id="VOK0NjO4ZqthzF3g6MxM-29" style="edgeStyle=orthogonalEdgeStyle;rounded=0;orthogonalLoop=1;jettySize=auto;html=1;endArrow=open;endFill=0;" edge="1" parent="1" source="VOK0NjO4ZqthzF3g6MxM-11" target="VOK0NjO4ZqthzF3g6MxM-25">
          <mxGeometry relative="1" as="geometry" />
        </mxCell>
        <mxCell id="VOK0NjO4ZqthzF3g6MxM-11" value="&lt;p style=&quot;margin:0px;margin-top:4px;text-align:center;&quot;&gt;&lt;b&gt;MyClass&lt;/b&gt;&lt;/p&gt;&lt;hr size=&quot;1&quot;&gt;&lt;p style=&quot;margin:0px;margin-left:4px;&quot;&gt;&lt;br&gt;&lt;/p&gt;&lt;hr size=&quot;1&quot;&gt;&lt;p style=&quot;margin:0px;margin-left:4px;&quot;&gt;+ callback1(JSON): String&lt;/p&gt;&lt;p style=&quot;margin:0px;margin-left:4px;&quot;&gt;+ callback2(JSON): String&lt;br&gt;&lt;/p&gt;&lt;p style=&quot;margin:0px;margin-left:4px;&quot;&gt;+ callback3(JSON): String&lt;br&gt;&lt;/p&gt;&lt;p style=&quot;margin:0px;margin-left:4px;&quot;&gt;+ callback4(JSON): String&lt;br&gt;&lt;/p&gt;" style="verticalAlign=top;align=left;overflow=fill;fontSize=12;fontFamily=Helvetica;html=1;fillColor=#ffe6cc;strokeColor=#000000;" vertex="1" parent="1">
          <mxGeometry x="600" y="520" width="200" height="120" as="geometry" />
        </mxCell>
        <mxCell id="VOK0NjO4ZqthzF3g6MxM-14" value="is" style="text;html=1;align=center;verticalAlign=middle;whiteSpace=wrap;rounded=0;" vertex="1" parent="1">
          <mxGeometry x="770" y="140" width="20" height="20" as="geometry" />
        </mxCell>
        <mxCell id="VOK0NjO4ZqthzF3g6MxM-15" value="is" style="text;html=1;align=center;verticalAlign=middle;whiteSpace=wrap;rounded=0;" vertex="1" parent="1">
          <mxGeometry x="610" y="140" width="20" height="20" as="geometry" />
        </mxCell>
        <mxCell id="VOK0NjO4ZqthzF3g6MxM-16" value="is" style="text;html=1;align=center;verticalAlign=middle;whiteSpace=wrap;rounded=0;" vertex="1" parent="1">
          <mxGeometry x="770" y="460" width="20" height="20" as="geometry" />
        </mxCell>
        <mxCell id="VOK0NjO4ZqthzF3g6MxM-17" value="is" style="text;html=1;align=center;verticalAlign=middle;whiteSpace=wrap;rounded=0;" vertex="1" parent="1">
          <mxGeometry x="610" y="460" width="20" height="20" as="geometry" />
        </mxCell>
        <mxCell id="VOK0NjO4ZqthzF3g6MxM-18" value="has" style="text;html=1;align=left;verticalAlign=middle;whiteSpace=wrap;rounded=0;" vertex="1" parent="1">
          <mxGeometry x="840" y="310" width="20" height="20" as="geometry" />
        </mxCell>
        <mxCell id="VOK0NjO4ZqthzF3g6MxM-19" value="has" style="text;html=1;align=left;verticalAlign=middle;whiteSpace=wrap;rounded=0;" vertex="1" parent="1">
          <mxGeometry x="560" y="310" width="20" height="20" as="geometry" />
        </mxCell>
        <mxCell id="VOK0NjO4ZqthzF3g6MxM-20" value="1" style="text;html=1;align=center;verticalAlign=middle;whiteSpace=wrap;rounded=0;" vertex="1" parent="1">
          <mxGeometry x="840" y="340" width="20" height="20" as="geometry" />
        </mxCell>
        <mxCell id="VOK0NjO4ZqthzF3g6MxM-21" value="1" style="text;html=1;align=center;verticalAlign=middle;whiteSpace=wrap;rounded=0;" vertex="1" parent="1">
          <mxGeometry x="560" y="340" width="20" height="20" as="geometry" />
        </mxCell>
        <mxCell id="VOK0NjO4ZqthzF3g6MxM-22" value="1" style="text;html=1;align=center;verticalAlign=middle;whiteSpace=wrap;rounded=0;" vertex="1" parent="1">
          <mxGeometry x="840" y="280" width="20" height="20" as="geometry" />
        </mxCell>
        <mxCell id="VOK0NjO4ZqthzF3g6MxM-23" value="1" style="text;html=1;align=center;verticalAlign=middle;whiteSpace=wrap;rounded=0;" vertex="1" parent="1">
          <mxGeometry x="560" y="280" width="20" height="20" as="geometry" />
        </mxCell>
        <mxCell id="VOK0NjO4ZqthzF3g6MxM-30" style="edgeStyle=orthogonalEdgeStyle;rounded=1;orthogonalLoop=1;jettySize=auto;html=1;curved=0;endArrow=open;endFill=0;" edge="1" parent="1" source="VOK0NjO4ZqthzF3g6MxM-24" target="VOK0NjO4ZqthzF3g6MxM-26">
          <mxGeometry relative="1" as="geometry">
            <Array as="points">
              <mxPoint x="440" y="760" />
            </Array>
          </mxGeometry>
        </mxCell>
        <mxCell id="VOK0NjO4ZqthzF3g6MxM-24" value="&lt;p style=&quot;margin:0px;margin-top:4px;text-align:center;&quot;&gt;&lt;b&gt;ServiceAPI_A&lt;/b&gt;&lt;/p&gt;&lt;hr size=&quot;1&quot;&gt;&lt;p style=&quot;margin:0px;margin-left:4px;&quot;&gt;&lt;br&gt;&lt;/p&gt;&lt;hr size=&quot;1&quot;&gt;&lt;p style=&quot;margin:0px;margin-left:4px;&quot;&gt;&lt;u&gt;+ request1(): String&lt;/u&gt;&lt;/p&gt;&lt;p style=&quot;margin:0px;margin-left:4px;&quot;&gt;&lt;u&gt;+ request2(): String&lt;/u&gt;&lt;/p&gt;" style="verticalAlign=top;align=left;overflow=fill;fontSize=12;fontFamily=Helvetica;html=1;fillColor=#ffe6cc;strokeColor=#000000;" vertex="1" parent="1">
          <mxGeometry x="360" y="520" width="160" height="120" as="geometry" />
        </mxCell>
        <mxCell id="VOK0NjO4ZqthzF3g6MxM-31" style="edgeStyle=orthogonalEdgeStyle;rounded=1;orthogonalLoop=1;jettySize=auto;html=1;endArrow=open;endFill=0;curved=0;" edge="1" parent="1" source="VOK0NjO4ZqthzF3g6MxM-25" target="VOK0NjO4ZqthzF3g6MxM-26">
          <mxGeometry relative="1" as="geometry">
            <Array as="points">
              <mxPoint x="960" y="760" />
            </Array>
          </mxGeometry>
        </mxCell>
        <mxCell id="VOK0NjO4ZqthzF3g6MxM-25" value="&lt;p style=&quot;margin:0px;margin-top:4px;text-align:center;&quot;&gt;&lt;b&gt;ServiceAPI_B&lt;/b&gt;&lt;/p&gt;&lt;hr size=&quot;1&quot;&gt;&lt;p style=&quot;margin:0px;margin-left:4px;&quot;&gt;&lt;br&gt;&lt;/p&gt;&lt;hr size=&quot;1&quot;&gt;&lt;p style=&quot;margin:0px;margin-left:4px;&quot;&gt;&lt;u&gt;+ request3(): String&lt;/u&gt;&lt;/p&gt;&lt;p style=&quot;margin:0px;margin-left:4px;&quot;&gt;&lt;u&gt;+ request4(): String&lt;/u&gt;&lt;/p&gt;" style="verticalAlign=top;align=left;overflow=fill;fontSize=12;fontFamily=Helvetica;html=1;fillColor=#ffe6cc;strokeColor=#000000;" vertex="1" parent="1">
          <mxGeometry x="880" y="520" width="160" height="120" as="geometry" />
        </mxCell>
        <mxCell id="VOK0NjO4ZqthzF3g6MxM-26" value="&lt;p style=&quot;margin:0px;margin-top:4px;text-align:center;&quot;&gt;&lt;b&gt;ServiceAPIManager&lt;/b&gt;&lt;/p&gt;&lt;hr size=&quot;1&quot;&gt;&lt;p style=&quot;margin:0px;margin-left:4px;&quot;&gt;- serviceURL: String&lt;/p&gt;&lt;hr size=&quot;1&quot;&gt;&lt;p style=&quot;margin:0px;margin-left:4px;&quot;&gt;&lt;u&gt;- instance(): ServiceAPIManager&lt;/u&gt;&lt;/p&gt;&lt;p style=&quot;margin:0px;margin-left:4px;&quot;&gt;&lt;u&gt;+ sendToService(String): String&lt;/u&gt;&lt;/p&gt;" style="verticalAlign=top;align=left;overflow=fill;fontSize=12;fontFamily=Helvetica;html=1;fillColor=#ffe6cc;strokeColor=#000000;" vertex="1" parent="1">
          <mxGeometry x="600" y="720" width="200" height="120" as="geometry" />
        </mxCell>
        <mxCell id="VOK0NjO4ZqthzF3g6MxM-32" value="uses" style="text;html=1;align=center;verticalAlign=middle;whiteSpace=wrap;rounded=0;" vertex="1" parent="1">
          <mxGeometry x="550" y="560" width="20" height="20" as="geometry" />
        </mxCell>
        <mxCell id="VOK0NjO4ZqthzF3g6MxM-33" value="uses" style="text;html=1;align=center;verticalAlign=middle;whiteSpace=wrap;rounded=0;" vertex="1" parent="1">
          <mxGeometry x="830" y="560" width="20" height="20" as="geometry" />
        </mxCell>
        <mxCell id="VOK0NjO4ZqthzF3g6MxM-34" value="uses" style="text;html=1;align=center;verticalAlign=middle;whiteSpace=wrap;rounded=0;" vertex="1" parent="1">
          <mxGeometry x="450" y="730" width="20" height="20" as="geometry" />
        </mxCell>
        <mxCell id="VOK0NjO4ZqthzF3g6MxM-35" value="uses" style="text;html=1;align=center;verticalAlign=middle;whiteSpace=wrap;rounded=0;" vertex="1" parent="1">
          <mxGeometry x="930" y="730" width="20" height="20" as="geometry" />
        </mxCell>
        <mxCell id="VOK0NjO4ZqthzF3g6MxM-38" value="&lt;font style=&quot;font-size: 16px;&quot;&gt;&lt;b&gt;MyService/ MyLibrary&lt;/b&gt;&lt;/font&gt;" style="text;html=1;align=center;verticalAlign=middle;whiteSpace=wrap;rounded=0;" vertex="1" parent="1">
          <mxGeometry x="670" y="660" width="60" height="30" as="geometry" />
        </mxCell>
        <mxCell id="VOK0NjO4ZqthzF3g6MxM-39" value="ServiceAPI" style="text;html=1;align=center;verticalAlign=middle;whiteSpace=wrap;rounded=0;fontStyle=1;fontSize=20;" vertex="1" parent="1">
          <mxGeometry x="920" y="830" width="60" height="30" as="geometry" />
        </mxCell>
      </root>
    </mxGraphModel>
  </diagram>
</mxfile>
